<mxfile host="app.diagrams.net" modified="2024-06-20T15:35:22.222Z" agent="Mozilla/5.0 (Windows NT 10.0; Win64; x64) AppleWebKit/537.36 (KHTML, like Gecko) Chrome/126.0.0.0 Safari/537.36" etag="Bsf6QAp3iuP91bxhCm_w" version="24.5.5" type="github" pages="6">
  <diagram name="State Machine Diagram" id="gP0zPGlflbPupSnP1_vm">
    <mxGraphModel dx="3717" dy="1160" grid="1" gridSize="10" guides="1" tooltips="1" connect="1" arrows="1" fold="1" page="1" pageScale="1" pageWidth="850" pageHeight="1100" math="0" shadow="0">
      <root>
        <mxCell id="0" />
        <mxCell id="1" parent="0" />
        <mxCell id="Ts-cI60gPqAjIB_2pUeZ-1" value="&lt;font style=&quot;font-size: 36px;&quot;&gt;State Machine Diagram&amp;nbsp;&lt;/font&gt;" style="rounded=0;whiteSpace=wrap;html=1;fillColor=#fff2cc;strokeColor=#d6b656;" parent="1" vertex="1">
          <mxGeometry x="295" y="20" width="580" height="120" as="geometry" />
        </mxCell>
        <mxCell id="Ts-cI60gPqAjIB_2pUeZ-2" value="" style="ellipse;whiteSpace=wrap;html=1;aspect=fixed;fillColor=#000000;" parent="1" vertex="1">
          <mxGeometry x="160" y="300" width="40" height="40" as="geometry" />
        </mxCell>
        <mxCell id="Ts-cI60gPqAjIB_2pUeZ-7" value="" style="endArrow=classic;html=1;rounded=0;exitX=0.5;exitY=0;exitDx=0;exitDy=0;entryX=0.5;entryY=1;entryDx=0;entryDy=0;" parent="1" source="Ts-cI60gPqAjIB_2pUeZ-9" target="Ts-cI60gPqAjIB_2pUeZ-43" edge="1">
          <mxGeometry width="50" height="50" relative="1" as="geometry">
            <mxPoint x="572" y="680" as="sourcePoint" />
            <mxPoint x="660" y="690" as="targetPoint" />
          </mxGeometry>
        </mxCell>
        <mxCell id="Ts-cI60gPqAjIB_2pUeZ-9" value="" style="ellipse;html=1;shape=endState;fillColor=#000000;strokeColor=#ff0000;" parent="1" vertex="1">
          <mxGeometry x="705" y="880" width="40" height="40" as="geometry" />
        </mxCell>
        <mxCell id="Ts-cI60gPqAjIB_2pUeZ-10" value="Process Complete" style="text;html=1;align=center;verticalAlign=middle;whiteSpace=wrap;rounded=0;" parent="1" vertex="1">
          <mxGeometry x="695" y="930" width="60" height="30" as="geometry" />
        </mxCell>
        <mxCell id="Ts-cI60gPqAjIB_2pUeZ-11" value="" style="endArrow=classic;html=1;rounded=0;" parent="1" edge="1">
          <mxGeometry width="50" height="50" relative="1" as="geometry">
            <mxPoint x="210" y="320" as="sourcePoint" />
            <mxPoint x="310" y="320" as="targetPoint" />
          </mxGeometry>
        </mxCell>
        <mxCell id="Ts-cI60gPqAjIB_2pUeZ-13" value="start" style="text;whiteSpace=wrap;" parent="1" vertex="1">
          <mxGeometry x="165" y="360" width="30" height="30" as="geometry" />
        </mxCell>
        <mxCell id="Ts-cI60gPqAjIB_2pUeZ-14" value="Authentication States" style="swimlane;whiteSpace=wrap;html=1;" parent="1" vertex="1">
          <mxGeometry x="320" y="180" width="530" height="350" as="geometry" />
        </mxCell>
        <mxCell id="Ts-cI60gPqAjIB_2pUeZ-24" value="" style="endArrow=classic;html=1;rounded=0;" parent="Ts-cI60gPqAjIB_2pUeZ-14" edge="1">
          <mxGeometry width="50" height="50" relative="1" as="geometry">
            <mxPoint x="165" y="150" as="sourcePoint" />
            <mxPoint x="215" y="150" as="targetPoint" />
          </mxGeometry>
        </mxCell>
        <mxCell id="Ts-cI60gPqAjIB_2pUeZ-25" value="" style="rhombus;whiteSpace=wrap;html=1;" parent="Ts-cI60gPqAjIB_2pUeZ-14" vertex="1">
          <mxGeometry x="215" y="120" width="55" height="60" as="geometry" />
        </mxCell>
        <mxCell id="Ts-cI60gPqAjIB_2pUeZ-26" value="" style="endArrow=classic;html=1;rounded=0;" parent="Ts-cI60gPqAjIB_2pUeZ-14" edge="1">
          <mxGeometry width="50" height="50" relative="1" as="geometry">
            <mxPoint x="275" y="150" as="sourcePoint" />
            <mxPoint x="335" y="150" as="targetPoint" />
          </mxGeometry>
        </mxCell>
        <mxCell id="Ts-cI60gPqAjIB_2pUeZ-27" value="correct" style="edgeLabel;html=1;align=center;verticalAlign=middle;resizable=0;points=[];" parent="Ts-cI60gPqAjIB_2pUeZ-26" vertex="1" connectable="0">
          <mxGeometry x="-0.1" relative="1" as="geometry">
            <mxPoint as="offset" />
          </mxGeometry>
        </mxCell>
        <mxCell id="Ts-cI60gPqAjIB_2pUeZ-29" value="Verify Account" style="swimlane;fontStyle=0;childLayout=stackLayout;horizontal=1;startSize=30;horizontalStack=0;resizeParent=1;resizeParentMax=0;resizeLast=0;collapsible=1;marginBottom=0;whiteSpace=wrap;html=1;" parent="Ts-cI60gPqAjIB_2pUeZ-14" vertex="1">
          <mxGeometry x="15" y="90" width="140" height="90" as="geometry" />
        </mxCell>
        <mxCell id="Ts-cI60gPqAjIB_2pUeZ-30" value="informationSubmit/" style="text;strokeColor=none;fillColor=none;align=left;verticalAlign=middle;spacingLeft=4;spacingRight=4;overflow=hidden;points=[[0,0.5],[1,0.5]];portConstraint=eastwest;rotatable=0;whiteSpace=wrap;html=1;" parent="Ts-cI60gPqAjIB_2pUeZ-29" vertex="1">
          <mxGeometry y="30" width="140" height="30" as="geometry" />
        </mxCell>
        <mxCell id="Ts-cI60gPqAjIB_2pUeZ-31" value="checkInformation/" style="text;strokeColor=none;fillColor=none;align=left;verticalAlign=middle;spacingLeft=4;spacingRight=4;overflow=hidden;points=[[0,0.5],[1,0.5]];portConstraint=eastwest;rotatable=0;whiteSpace=wrap;html=1;" parent="Ts-cI60gPqAjIB_2pUeZ-29" vertex="1">
          <mxGeometry y="60" width="140" height="30" as="geometry" />
        </mxCell>
        <mxCell id="Ts-cI60gPqAjIB_2pUeZ-33" value="" style="endArrow=classic;html=1;rounded=0;" parent="Ts-cI60gPqAjIB_2pUeZ-14" edge="1">
          <mxGeometry width="50" height="50" relative="1" as="geometry">
            <mxPoint x="241.90999999999997" y="190" as="sourcePoint" />
            <mxPoint x="241.90999999999997" y="240" as="targetPoint" />
          </mxGeometry>
        </mxCell>
        <mxCell id="Ts-cI60gPqAjIB_2pUeZ-34" value="incorrect" style="edgeLabel;html=1;align=center;verticalAlign=middle;resizable=0;points=[];" parent="Ts-cI60gPqAjIB_2pUeZ-33" vertex="1" connectable="0">
          <mxGeometry x="-0.3365" y="-1" relative="1" as="geometry">
            <mxPoint as="offset" />
          </mxGeometry>
        </mxCell>
        <mxCell id="Ts-cI60gPqAjIB_2pUeZ-37" value="Information Incorrect" style="swimlane;whiteSpace=wrap;html=1;" parent="Ts-cI60gPqAjIB_2pUeZ-14" vertex="1">
          <mxGeometry x="185" y="250" width="115" height="80" as="geometry" />
        </mxCell>
        <mxCell id="Ts-cI60gPqAjIB_2pUeZ-40" value="Information&amp;nbsp;&lt;div&gt;Correct&lt;/div&gt;" style="swimlane;whiteSpace=wrap;html=1;" parent="Ts-cI60gPqAjIB_2pUeZ-14" vertex="1">
          <mxGeometry x="345" y="110" width="115" height="80" as="geometry" />
        </mxCell>
        <mxCell id="Ts-cI60gPqAjIB_2pUeZ-42" value="" style="endArrow=classic;html=1;rounded=0;" parent="Ts-cI60gPqAjIB_2pUeZ-14" edge="1">
          <mxGeometry width="50" height="50" relative="1" as="geometry">
            <mxPoint x="403.5" y="200" as="sourcePoint" />
            <mxPoint x="402" y="430" as="targetPoint" />
          </mxGeometry>
        </mxCell>
        <mxCell id="Ts-cI60gPqAjIB_2pUeZ-38" value="" style="endArrow=classic;html=1;rounded=0;" parent="1" edge="1">
          <mxGeometry width="50" height="50" relative="1" as="geometry">
            <mxPoint x="450" y="470" as="sourcePoint" />
            <mxPoint x="450" y="370" as="targetPoint" />
          </mxGeometry>
        </mxCell>
        <mxCell id="Ts-cI60gPqAjIB_2pUeZ-39" value="" style="endArrow=none;html=1;rounded=0;entryX=0;entryY=0.5;entryDx=0;entryDy=0;" parent="1" target="Ts-cI60gPqAjIB_2pUeZ-37" edge="1">
          <mxGeometry width="50" height="50" relative="1" as="geometry">
            <mxPoint x="450" y="470" as="sourcePoint" />
            <mxPoint x="680" y="540" as="targetPoint" />
          </mxGeometry>
        </mxCell>
        <mxCell id="Ts-cI60gPqAjIB_2pUeZ-43" value="Idle" style="swimlane;whiteSpace=wrap;html=1;" parent="1" vertex="1">
          <mxGeometry x="660" y="620" width="130" height="100" as="geometry" />
        </mxCell>
        <mxCell id="Ts-cI60gPqAjIB_2pUeZ-44" value="Group Management States" style="swimlane;whiteSpace=wrap;html=1;" parent="1" vertex="1">
          <mxGeometry x="-475" y="1170.0000000000002" width="600" height="430" as="geometry" />
        </mxCell>
        <mxCell id="Ts-cI60gPqAjIB_2pUeZ-49" value="Enter Group Page" style="swimlane;fontStyle=0;childLayout=stackLayout;horizontal=1;startSize=30;horizontalStack=0;resizeParent=1;resizeParentMax=0;resizeLast=0;collapsible=1;marginBottom=0;whiteSpace=wrap;html=1;" parent="Ts-cI60gPqAjIB_2pUeZ-44" vertex="1">
          <mxGeometry x="230" y="330" width="140" height="60" as="geometry" />
        </mxCell>
        <mxCell id="Ts-cI60gPqAjIB_2pUeZ-60" value="" style="edgeStyle=orthogonalEdgeStyle;rounded=0;orthogonalLoop=1;jettySize=auto;html=1;" parent="Ts-cI60gPqAjIB_2pUeZ-44" source="Ts-cI60gPqAjIB_2pUeZ-58" edge="1">
          <mxGeometry relative="1" as="geometry">
            <mxPoint x="360" y="230" as="targetPoint" />
          </mxGeometry>
        </mxCell>
        <mxCell id="Ts-cI60gPqAjIB_2pUeZ-62" value="" style="edgeStyle=orthogonalEdgeStyle;rounded=0;orthogonalLoop=1;jettySize=auto;html=1;" parent="Ts-cI60gPqAjIB_2pUeZ-44" source="Ts-cI60gPqAjIB_2pUeZ-58" edge="1">
          <mxGeometry relative="1" as="geometry">
            <mxPoint x="240" y="230" as="targetPoint" />
          </mxGeometry>
        </mxCell>
        <mxCell id="Ts-cI60gPqAjIB_2pUeZ-64" value="" style="edgeStyle=orthogonalEdgeStyle;rounded=0;orthogonalLoop=1;jettySize=auto;html=1;" parent="Ts-cI60gPqAjIB_2pUeZ-44" source="Ts-cI60gPqAjIB_2pUeZ-58" edge="1">
          <mxGeometry relative="1" as="geometry">
            <mxPoint x="300" y="140" as="targetPoint" />
          </mxGeometry>
        </mxCell>
        <mxCell id="Ts-cI60gPqAjIB_2pUeZ-58" value="" style="rhombus;whiteSpace=wrap;html=1;" parent="Ts-cI60gPqAjIB_2pUeZ-44" vertex="1">
          <mxGeometry x="280" y="210" width="40" height="40" as="geometry" />
        </mxCell>
        <mxCell id="Ts-cI60gPqAjIB_2pUeZ-65" value="Create Group" style="swimlane;fontStyle=0;childLayout=stackLayout;horizontal=1;startSize=30;horizontalStack=0;resizeParent=1;resizeParentMax=0;resizeLast=0;collapsible=1;marginBottom=0;whiteSpace=wrap;html=1;" parent="Ts-cI60gPqAjIB_2pUeZ-44" vertex="1">
          <mxGeometry x="100" y="200" width="140" height="60" as="geometry" />
        </mxCell>
        <mxCell id="Ts-cI60gPqAjIB_2pUeZ-69" value="informationSubmit/" style="text;html=1;align=center;verticalAlign=middle;resizable=0;points=[];autosize=1;strokeColor=none;fillColor=none;" parent="Ts-cI60gPqAjIB_2pUeZ-65" vertex="1">
          <mxGeometry y="30" width="140" height="30" as="geometry" />
        </mxCell>
        <mxCell id="Ts-cI60gPqAjIB_2pUeZ-67" value="Join Group" style="swimlane;fontStyle=0;childLayout=stackLayout;horizontal=1;startSize=30;horizontalStack=0;resizeParent=1;resizeParentMax=0;resizeLast=0;collapsible=1;marginBottom=0;whiteSpace=wrap;html=1;" parent="Ts-cI60gPqAjIB_2pUeZ-44" vertex="1">
          <mxGeometry x="230" y="80" width="140" height="60" as="geometry" />
        </mxCell>
        <mxCell id="Ts-cI60gPqAjIB_2pUeZ-68" value="requestSubmit/" style="text;html=1;align=center;verticalAlign=middle;resizable=0;points=[];autosize=1;strokeColor=none;fillColor=none;" parent="Ts-cI60gPqAjIB_2pUeZ-67" vertex="1">
          <mxGeometry y="30" width="140" height="30" as="geometry" />
        </mxCell>
        <mxCell id="Ts-cI60gPqAjIB_2pUeZ-92" value="Edit Group" style="swimlane;fontStyle=0;childLayout=stackLayout;horizontal=1;startSize=30;horizontalStack=0;resizeParent=1;resizeParentMax=0;resizeLast=0;collapsible=1;marginBottom=0;whiteSpace=wrap;html=1;" parent="Ts-cI60gPqAjIB_2pUeZ-44" vertex="1">
          <mxGeometry x="380" y="170" width="140" height="120" as="geometry" />
        </mxCell>
        <mxCell id="Ts-cI60gPqAjIB_2pUeZ-93" value="requestSubmit/" style="text;strokeColor=none;fillColor=none;align=left;verticalAlign=middle;spacingLeft=4;spacingRight=4;overflow=hidden;points=[[0,0.5],[1,0.5]];portConstraint=eastwest;rotatable=0;whiteSpace=wrap;html=1;" parent="Ts-cI60gPqAjIB_2pUeZ-92" vertex="1">
          <mxGeometry y="30" width="140" height="30" as="geometry" />
        </mxCell>
        <mxCell id="Ts-cI60gPqAjIB_2pUeZ-94" value="checkGroupHost/" style="text;strokeColor=none;fillColor=none;align=left;verticalAlign=middle;spacingLeft=4;spacingRight=4;overflow=hidden;points=[[0,0.5],[1,0.5]];portConstraint=eastwest;rotatable=0;whiteSpace=wrap;html=1;" parent="Ts-cI60gPqAjIB_2pUeZ-92" vertex="1">
          <mxGeometry y="60" width="140" height="30" as="geometry" />
        </mxCell>
        <mxCell id="Ts-cI60gPqAjIB_2pUeZ-95" value="editInformation/" style="text;strokeColor=none;fillColor=none;align=left;verticalAlign=middle;spacingLeft=4;spacingRight=4;overflow=hidden;points=[[0,0.5],[1,0.5]];portConstraint=eastwest;rotatable=0;whiteSpace=wrap;html=1;" parent="Ts-cI60gPqAjIB_2pUeZ-92" vertex="1">
          <mxGeometry y="90" width="140" height="30" as="geometry" />
        </mxCell>
        <mxCell id="Ts-cI60gPqAjIB_2pUeZ-57" value="" style="endArrow=classic;html=1;rounded=0;exitX=0.5;exitY=0;exitDx=0;exitDy=0;" parent="1" source="Ts-cI60gPqAjIB_2pUeZ-49" edge="1">
          <mxGeometry width="50" height="50" relative="1" as="geometry">
            <mxPoint x="-85" y="1210.0000000000002" as="sourcePoint" />
            <mxPoint x="-175" y="1420.0000000000002" as="targetPoint" />
          </mxGeometry>
        </mxCell>
        <mxCell id="Ts-cI60gPqAjIB_2pUeZ-97" value="" style="endArrow=classic;html=1;rounded=0;entryX=0;entryY=0.5;entryDx=0;entryDy=0;exitX=0.525;exitY=0.001;exitDx=0;exitDy=0;exitPerimeter=0;" parent="1" source="Ts-cI60gPqAjIB_2pUeZ-44" target="Ts-cI60gPqAjIB_2pUeZ-9" edge="1">
          <mxGeometry width="50" height="50" relative="1" as="geometry">
            <mxPoint x="440" y="1225.8600000000001" as="sourcePoint" />
            <mxPoint x="485.8578643762694" y="1080.0021356237307" as="targetPoint" />
          </mxGeometry>
        </mxCell>
        <mxCell id="Ts-cI60gPqAjIB_2pUeZ-99" value="Content Interaction States" style="swimlane;whiteSpace=wrap;html=1;" parent="1" vertex="1">
          <mxGeometry x="280" y="1170.0000000000002" width="600" height="430" as="geometry" />
        </mxCell>
        <mxCell id="Ts-cI60gPqAjIB_2pUeZ-100" value="Enter Group Page" style="swimlane;fontStyle=0;childLayout=stackLayout;horizontal=1;startSize=30;horizontalStack=0;resizeParent=1;resizeParentMax=0;resizeLast=0;collapsible=1;marginBottom=0;whiteSpace=wrap;html=1;" parent="Ts-cI60gPqAjIB_2pUeZ-99" vertex="1">
          <mxGeometry x="230" y="330" width="140" height="60" as="geometry" />
        </mxCell>
        <mxCell id="Ts-cI60gPqAjIB_2pUeZ-101" value="" style="edgeStyle=orthogonalEdgeStyle;rounded=0;orthogonalLoop=1;jettySize=auto;html=1;" parent="Ts-cI60gPqAjIB_2pUeZ-99" source="Ts-cI60gPqAjIB_2pUeZ-104" edge="1">
          <mxGeometry relative="1" as="geometry">
            <mxPoint x="360" y="230" as="targetPoint" />
          </mxGeometry>
        </mxCell>
        <mxCell id="Ts-cI60gPqAjIB_2pUeZ-102" value="" style="edgeStyle=orthogonalEdgeStyle;rounded=0;orthogonalLoop=1;jettySize=auto;html=1;" parent="Ts-cI60gPqAjIB_2pUeZ-99" source="Ts-cI60gPqAjIB_2pUeZ-104" edge="1">
          <mxGeometry relative="1" as="geometry">
            <mxPoint x="240" y="230" as="targetPoint" />
          </mxGeometry>
        </mxCell>
        <mxCell id="Ts-cI60gPqAjIB_2pUeZ-103" value="" style="edgeStyle=orthogonalEdgeStyle;rounded=0;orthogonalLoop=1;jettySize=auto;html=1;" parent="Ts-cI60gPqAjIB_2pUeZ-99" source="Ts-cI60gPqAjIB_2pUeZ-104" edge="1">
          <mxGeometry relative="1" as="geometry">
            <mxPoint x="300" y="140" as="targetPoint" />
          </mxGeometry>
        </mxCell>
        <mxCell id="Ts-cI60gPqAjIB_2pUeZ-104" value="" style="rhombus;whiteSpace=wrap;html=1;" parent="Ts-cI60gPqAjIB_2pUeZ-99" vertex="1">
          <mxGeometry x="280" y="210" width="40" height="40" as="geometry" />
        </mxCell>
        <mxCell id="Ts-cI60gPqAjIB_2pUeZ-105" value="Upload Post" style="swimlane;fontStyle=0;childLayout=stackLayout;horizontal=1;startSize=30;horizontalStack=0;resizeParent=1;resizeParentMax=0;resizeLast=0;collapsible=1;marginBottom=0;whiteSpace=wrap;html=1;" parent="Ts-cI60gPqAjIB_2pUeZ-99" vertex="1">
          <mxGeometry x="100" y="200" width="140" height="60" as="geometry" />
        </mxCell>
        <mxCell id="Ts-cI60gPqAjIB_2pUeZ-106" value="informationSubmit/" style="text;html=1;align=center;verticalAlign=middle;resizable=0;points=[];autosize=1;strokeColor=none;fillColor=none;" parent="Ts-cI60gPqAjIB_2pUeZ-105" vertex="1">
          <mxGeometry y="30" width="140" height="30" as="geometry" />
        </mxCell>
        <mxCell id="Ts-cI60gPqAjIB_2pUeZ-107" value="Like Post" style="swimlane;fontStyle=0;childLayout=stackLayout;horizontal=1;startSize=30;horizontalStack=0;resizeParent=1;resizeParentMax=0;resizeLast=0;collapsible=1;marginBottom=0;whiteSpace=wrap;html=1;" parent="Ts-cI60gPqAjIB_2pUeZ-99" vertex="1">
          <mxGeometry x="230" y="80" width="140" height="65" as="geometry" />
        </mxCell>
        <mxCell id="Ts-cI60gPqAjIB_2pUeZ-109" value="Share Post" style="swimlane;fontStyle=0;childLayout=stackLayout;horizontal=1;startSize=30;horizontalStack=0;resizeParent=1;resizeParentMax=0;resizeLast=0;collapsible=1;marginBottom=0;whiteSpace=wrap;html=1;" parent="Ts-cI60gPqAjIB_2pUeZ-99" vertex="1">
          <mxGeometry x="380" y="170" width="140" height="90" as="geometry" />
        </mxCell>
        <mxCell id="Ts-cI60gPqAjIB_2pUeZ-110" value="requestDestination/" style="text;strokeColor=none;fillColor=none;align=left;verticalAlign=middle;spacingLeft=4;spacingRight=4;overflow=hidden;points=[[0,0.5],[1,0.5]];portConstraint=eastwest;rotatable=0;whiteSpace=wrap;html=1;" parent="Ts-cI60gPqAjIB_2pUeZ-109" vertex="1">
          <mxGeometry y="30" width="140" height="30" as="geometry" />
        </mxCell>
        <mxCell id="Ts-cI60gPqAjIB_2pUeZ-111" value="destinationSubmit/" style="text;strokeColor=none;fillColor=none;align=left;verticalAlign=middle;spacingLeft=4;spacingRight=4;overflow=hidden;points=[[0,0.5],[1,0.5]];portConstraint=eastwest;rotatable=0;whiteSpace=wrap;html=1;" parent="Ts-cI60gPqAjIB_2pUeZ-109" vertex="1">
          <mxGeometry y="60" width="140" height="30" as="geometry" />
        </mxCell>
        <mxCell id="Ts-cI60gPqAjIB_2pUeZ-113" value="" style="endArrow=classic;html=1;rounded=0;exitX=0.5;exitY=0;exitDx=0;exitDy=0;entryX=0.5;entryY=1;entryDx=0;entryDy=0;" parent="Ts-cI60gPqAjIB_2pUeZ-99" source="Ts-cI60gPqAjIB_2pUeZ-100" target="Ts-cI60gPqAjIB_2pUeZ-104" edge="1">
          <mxGeometry width="50" height="50" relative="1" as="geometry">
            <mxPoint x="345" y="30" as="sourcePoint" />
            <mxPoint x="255" y="240" as="targetPoint" />
          </mxGeometry>
        </mxCell>
        <mxCell id="Ts-cI60gPqAjIB_2pUeZ-114" value="" style="endArrow=classic;html=1;rounded=0;exitX=0.477;exitY=-0.002;exitDx=0;exitDy=0;exitPerimeter=0;entryX=0.5;entryY=1;entryDx=0;entryDy=0;" parent="1" source="Ts-cI60gPqAjIB_2pUeZ-99" target="Ts-cI60gPqAjIB_2pUeZ-9" edge="1">
          <mxGeometry width="50" height="50" relative="1" as="geometry">
            <mxPoint x="740" y="1210" as="sourcePoint" />
            <mxPoint x="790" y="1160" as="targetPoint" />
            <Array as="points" />
          </mxGeometry>
        </mxCell>
        <mxCell id="Ts-cI60gPqAjIB_2pUeZ-115" value="Browsing States" style="swimlane;whiteSpace=wrap;html=1;" parent="1" vertex="1">
          <mxGeometry x="990" y="1150" width="600" height="430" as="geometry" />
        </mxCell>
        <mxCell id="Ts-cI60gPqAjIB_2pUeZ-116" value="Enter General Library" style="swimlane;fontStyle=0;childLayout=stackLayout;horizontal=1;startSize=30;horizontalStack=0;resizeParent=1;resizeParentMax=0;resizeLast=0;collapsible=1;marginBottom=0;whiteSpace=wrap;html=1;" parent="Ts-cI60gPqAjIB_2pUeZ-115" vertex="1">
          <mxGeometry x="225" y="275" width="140" height="60" as="geometry" />
        </mxCell>
        <mxCell id="Ts-cI60gPqAjIB_2pUeZ-117" value="" style="edgeStyle=orthogonalEdgeStyle;rounded=0;orthogonalLoop=1;jettySize=auto;html=1;" parent="Ts-cI60gPqAjIB_2pUeZ-115" source="Ts-cI60gPqAjIB_2pUeZ-120" edge="1">
          <mxGeometry relative="1" as="geometry">
            <mxPoint x="355" y="175" as="targetPoint" />
          </mxGeometry>
        </mxCell>
        <mxCell id="Ts-cI60gPqAjIB_2pUeZ-118" value="" style="edgeStyle=orthogonalEdgeStyle;rounded=0;orthogonalLoop=1;jettySize=auto;html=1;" parent="Ts-cI60gPqAjIB_2pUeZ-115" source="Ts-cI60gPqAjIB_2pUeZ-120" edge="1">
          <mxGeometry relative="1" as="geometry">
            <mxPoint x="235" y="175" as="targetPoint" />
          </mxGeometry>
        </mxCell>
        <mxCell id="Ts-cI60gPqAjIB_2pUeZ-120" value="" style="rhombus;whiteSpace=wrap;html=1;" parent="Ts-cI60gPqAjIB_2pUeZ-115" vertex="1">
          <mxGeometry x="275" y="155" width="40" height="40" as="geometry" />
        </mxCell>
        <mxCell id="Ts-cI60gPqAjIB_2pUeZ-121" value="browseGeneralLibrary" style="swimlane;fontStyle=0;childLayout=stackLayout;horizontal=1;startSize=30;horizontalStack=0;resizeParent=1;resizeParentMax=0;resizeLast=0;collapsible=1;marginBottom=0;whiteSpace=wrap;html=1;" parent="Ts-cI60gPqAjIB_2pUeZ-115" vertex="1">
          <mxGeometry x="95" y="145" width="140" height="65" as="geometry" />
        </mxCell>
        <mxCell id="Ts-cI60gPqAjIB_2pUeZ-124" value="Share Resources" style="swimlane;fontStyle=0;childLayout=stackLayout;horizontal=1;startSize=30;horizontalStack=0;resizeParent=1;resizeParentMax=0;resizeLast=0;collapsible=1;marginBottom=0;whiteSpace=wrap;html=1;" parent="Ts-cI60gPqAjIB_2pUeZ-115" vertex="1">
          <mxGeometry x="365" y="130" width="140" height="90" as="geometry" />
        </mxCell>
        <mxCell id="Ts-cI60gPqAjIB_2pUeZ-125" value="requestDestination/" style="text;strokeColor=none;fillColor=none;align=left;verticalAlign=middle;spacingLeft=4;spacingRight=4;overflow=hidden;points=[[0,0.5],[1,0.5]];portConstraint=eastwest;rotatable=0;whiteSpace=wrap;html=1;" parent="Ts-cI60gPqAjIB_2pUeZ-124" vertex="1">
          <mxGeometry y="30" width="140" height="30" as="geometry" />
        </mxCell>
        <mxCell id="Ts-cI60gPqAjIB_2pUeZ-126" value="destinationSubmit/" style="text;strokeColor=none;fillColor=none;align=left;verticalAlign=middle;spacingLeft=4;spacingRight=4;overflow=hidden;points=[[0,0.5],[1,0.5]];portConstraint=eastwest;rotatable=0;whiteSpace=wrap;html=1;" parent="Ts-cI60gPqAjIB_2pUeZ-124" vertex="1">
          <mxGeometry y="60" width="140" height="30" as="geometry" />
        </mxCell>
        <mxCell id="Ts-cI60gPqAjIB_2pUeZ-127" value="" style="endArrow=classic;html=1;rounded=0;exitX=0.5;exitY=0;exitDx=0;exitDy=0;" parent="Ts-cI60gPqAjIB_2pUeZ-115" source="Ts-cI60gPqAjIB_2pUeZ-116" edge="1">
          <mxGeometry width="50" height="50" relative="1" as="geometry">
            <mxPoint x="385" y="-15" as="sourcePoint" />
            <mxPoint x="295" y="195" as="targetPoint" />
          </mxGeometry>
        </mxCell>
        <mxCell id="Ts-cI60gPqAjIB_2pUeZ-128" value="" style="endArrow=classic;html=1;rounded=0;entryX=1;entryY=0.5;entryDx=0;entryDy=0;exitX=0.5;exitY=0;exitDx=0;exitDy=0;" parent="1" source="Ts-cI60gPqAjIB_2pUeZ-115" target="Ts-cI60gPqAjIB_2pUeZ-9" edge="1">
          <mxGeometry width="50" height="50" relative="1" as="geometry">
            <mxPoint x="1280" y="1140" as="sourcePoint" />
            <mxPoint x="1240" y="870" as="targetPoint" />
          </mxGeometry>
        </mxCell>
      </root>
    </mxGraphModel>
  </diagram>
  <diagram id="3YX90c8Y6GVGXtXc1XOt" name="Log In">
    <mxGraphModel dx="1720" dy="696" grid="1" gridSize="10" guides="1" tooltips="1" connect="1" arrows="1" fold="1" page="1" pageScale="1" pageWidth="827" pageHeight="1169" math="0" shadow="0">
      <root>
        <mxCell id="0" />
        <mxCell id="1" parent="0" />
        <mxCell id="C9vVsZPwI-hGa_SJvXRs-1" value="" style="ellipse;whiteSpace=wrap;html=1;aspect=fixed;fillColor=#000000;" vertex="1" parent="1">
          <mxGeometry x="389" y="220" width="50" height="50" as="geometry" />
        </mxCell>
        <mxCell id="C9vVsZPwI-hGa_SJvXRs-2" value="" style="endArrow=classic;html=1;rounded=0;" edge="1" parent="1">
          <mxGeometry width="50" height="50" relative="1" as="geometry">
            <mxPoint x="413.52" y="280" as="sourcePoint" />
            <mxPoint x="413.52" y="390" as="targetPoint" />
          </mxGeometry>
        </mxCell>
        <mxCell id="ViAUYBGbk1og9QX8Zmao-14" value="Press Log In" style="edgeLabel;html=1;align=center;verticalAlign=middle;resizable=0;points=[];" vertex="1" connectable="0" parent="C9vVsZPwI-hGa_SJvXRs-2">
          <mxGeometry x="-0.1424" y="2" relative="1" as="geometry">
            <mxPoint x="1" as="offset" />
          </mxGeometry>
        </mxCell>
        <mxCell id="C9vVsZPwI-hGa_SJvXRs-3" value="start" style="text;whiteSpace=wrap;" vertex="1" parent="1">
          <mxGeometry x="450" y="230" width="30" height="30" as="geometry" />
        </mxCell>
        <mxCell id="5-UkwwbR-GRbPoyDH8EM-1" value="" style="endArrow=classic;html=1;rounded=0;" edge="1" parent="1">
          <mxGeometry width="50" height="50" relative="1" as="geometry">
            <mxPoint x="430" y="920" as="sourcePoint" />
            <mxPoint x="430" y="1020" as="targetPoint" />
          </mxGeometry>
        </mxCell>
        <mxCell id="_HyIyzUZELBxZr_R5hib-1" value="" style="ellipse;html=1;shape=endState;fillColor=#000000;strokeColor=#ff0000;" vertex="1" parent="1">
          <mxGeometry x="410" y="1040" width="40" height="40" as="geometry" />
        </mxCell>
        <mxCell id="_HyIyzUZELBxZr_R5hib-2" value="Process Complete" style="text;html=1;align=center;verticalAlign=middle;whiteSpace=wrap;rounded=0;" vertex="1" parent="1">
          <mxGeometry x="400" y="1090" width="60" height="30" as="geometry" />
        </mxCell>
        <mxCell id="X3iYC51ToN30eFjZ8x3m-1" value="&lt;font style=&quot;font-size: 36px;&quot;&gt;Log In&lt;/font&gt;" style="rounded=0;whiteSpace=wrap;html=1;fillColor=#fff2cc;strokeColor=#d6b656;" vertex="1" parent="1">
          <mxGeometry x="189" y="140" width="466" height="60" as="geometry" />
        </mxCell>
        <mxCell id="pqnunH_xotfoTV_yZuuc-1" value="" style="endArrow=classic;html=1;rounded=0;" edge="1" parent="1">
          <mxGeometry width="50" height="50" relative="1" as="geometry">
            <mxPoint x="420" y="510" as="sourcePoint" />
            <mxPoint x="420" y="550" as="targetPoint" />
          </mxGeometry>
        </mxCell>
        <mxCell id="pqnunH_xotfoTV_yZuuc-3" value="" style="endArrow=none;html=1;rounded=0;" edge="1" parent="1">
          <mxGeometry width="50" height="50" relative="1" as="geometry">
            <mxPoint x="680" y="460" as="sourcePoint" />
            <mxPoint x="680" y="810" as="targetPoint" />
          </mxGeometry>
        </mxCell>
        <mxCell id="pqnunH_xotfoTV_yZuuc-4" value="" style="endArrow=classic;html=1;rounded=0;" edge="1" parent="1">
          <mxGeometry width="50" height="50" relative="1" as="geometry">
            <mxPoint x="680" y="460" as="sourcePoint" />
            <mxPoint x="500" y="460" as="targetPoint" />
          </mxGeometry>
        </mxCell>
        <mxCell id="nHfukoMagdt_YW6MNuFA-1" value="Idle" style="rounded=1;whiteSpace=wrap;html=1;" vertex="1" parent="1">
          <mxGeometry x="359" y="420" width="126" height="70" as="geometry" />
        </mxCell>
        <mxCell id="GShmPoivORO8d0Eu6oZ9-1" value="" style="rounded=1;whiteSpace=wrap;html=1;" vertex="1" parent="1">
          <mxGeometry x="257" y="560" width="330" height="350" as="geometry" />
        </mxCell>
        <mxCell id="GShmPoivORO8d0Eu6oZ9-3" value="&lt;span style=&quot;font-weight: 700;&quot;&gt;Log In States&lt;/span&gt;" style="text;html=1;align=center;verticalAlign=middle;whiteSpace=wrap;rounded=0;" vertex="1" parent="1">
          <mxGeometry x="350" y="570" width="130" height="30" as="geometry" />
        </mxCell>
        <mxCell id="GShmPoivORO8d0Eu6oZ9-4" value="Submit Information" style="rounded=1;whiteSpace=wrap;html=1;" vertex="1" parent="1">
          <mxGeometry x="362" y="620" width="120" height="60" as="geometry" />
        </mxCell>
        <mxCell id="GShmPoivORO8d0Eu6oZ9-5" value="" style="endArrow=classic;html=1;rounded=0;" edge="1" parent="1">
          <mxGeometry width="50" height="50" relative="1" as="geometry">
            <mxPoint x="421.33" y="695" as="sourcePoint" />
            <mxPoint x="421.33" y="775" as="targetPoint" />
          </mxGeometry>
        </mxCell>
        <mxCell id="GShmPoivORO8d0Eu6oZ9-6" value="Verify Account" style="rounded=1;whiteSpace=wrap;html=1;" vertex="1" parent="1">
          <mxGeometry x="365" y="780" width="120" height="60" as="geometry" />
        </mxCell>
        <mxCell id="GShmPoivORO8d0Eu6oZ9-7" value="" style="endArrow=none;html=1;rounded=0;" edge="1" parent="1">
          <mxGeometry width="50" height="50" relative="1" as="geometry">
            <mxPoint x="500" y="810" as="sourcePoint" />
            <mxPoint x="681.5237862723214" y="810" as="targetPoint" />
          </mxGeometry>
        </mxCell>
      </root>
    </mxGraphModel>
  </diagram>
  <diagram id="5udB1vG5t7Ze6WJTWj_A" name="Sign Up">
    <mxGraphModel dx="1518" dy="614" grid="1" gridSize="10" guides="1" tooltips="1" connect="1" arrows="1" fold="1" page="1" pageScale="1" pageWidth="827" pageHeight="1169" math="0" shadow="0">
      <root>
        <mxCell id="0" />
        <mxCell id="1" parent="0" />
        <mxCell id="DNY33X-7taailfHBam_J-1" value="" style="ellipse;whiteSpace=wrap;html=1;aspect=fixed;fillColor=#000000;" vertex="1" parent="1">
          <mxGeometry x="395" y="130" width="40" height="40" as="geometry" />
        </mxCell>
        <mxCell id="DNY33X-7taailfHBam_J-2" value="" style="endArrow=classic;html=1;rounded=0;" edge="1" parent="1">
          <mxGeometry width="50" height="50" relative="1" as="geometry">
            <mxPoint x="415" y="190" as="sourcePoint" />
            <mxPoint x="415" y="270" as="targetPoint" />
          </mxGeometry>
        </mxCell>
        <mxCell id="DNY33X-7taailfHBam_J-3" value="Click to Sign Up" style="edgeLabel;html=1;align=center;verticalAlign=middle;resizable=0;points=[];" vertex="1" connectable="0" parent="DNY33X-7taailfHBam_J-2">
          <mxGeometry x="-0.1424" y="2" relative="1" as="geometry">
            <mxPoint x="1" as="offset" />
          </mxGeometry>
        </mxCell>
        <mxCell id="DNY33X-7taailfHBam_J-4" value="start" style="text;whiteSpace=wrap;" vertex="1" parent="1">
          <mxGeometry x="461" y="135" width="30" height="30" as="geometry" />
        </mxCell>
        <mxCell id="DNY33X-7taailfHBam_J-17" value="" style="ellipse;html=1;shape=endState;fillColor=#000000;strokeColor=#ff0000;" vertex="1" parent="1">
          <mxGeometry x="406" y="1170" width="40" height="40" as="geometry" />
        </mxCell>
        <mxCell id="DNY33X-7taailfHBam_J-18" value="Process Complete" style="text;html=1;align=center;verticalAlign=middle;whiteSpace=wrap;rounded=0;" vertex="1" parent="1">
          <mxGeometry x="395" y="1220" width="60" height="30" as="geometry" />
        </mxCell>
        <mxCell id="DNY33X-7taailfHBam_J-19" value="&lt;font style=&quot;font-size: 36px;&quot;&gt;Sign Up&lt;/font&gt;" style="rounded=0;whiteSpace=wrap;html=1;fillColor=#fff2cc;strokeColor=#d6b656;" vertex="1" parent="1">
          <mxGeometry x="192" y="40" width="466" height="70" as="geometry" />
        </mxCell>
        <mxCell id="DNY33X-7taailfHBam_J-20" value="" style="endArrow=classic;html=1;rounded=0;" edge="1" parent="1">
          <mxGeometry width="50" height="50" relative="1" as="geometry">
            <mxPoint x="413" y="400" as="sourcePoint" />
            <mxPoint x="413" y="460" as="targetPoint" />
          </mxGeometry>
        </mxCell>
        <mxCell id="hSQZdgQzFAkIAxgpnXTj-1" value="" style="endArrow=classic;html=1;rounded=0;" edge="1" parent="1">
          <mxGeometry width="50" height="50" relative="1" as="geometry">
            <mxPoint x="415.09000000000003" y="780" as="sourcePoint" />
            <mxPoint x="415.09000000000003" y="890" as="targetPoint" />
          </mxGeometry>
        </mxCell>
        <mxCell id="hSQZdgQzFAkIAxgpnXTj-2" value="Accepted" style="edgeLabel;html=1;align=center;verticalAlign=middle;resizable=0;points=[];" vertex="1" connectable="0" parent="hSQZdgQzFAkIAxgpnXTj-1">
          <mxGeometry x="-0.1067" y="1" relative="1" as="geometry">
            <mxPoint y="-1" as="offset" />
          </mxGeometry>
        </mxCell>
        <mxCell id="hSQZdgQzFAkIAxgpnXTj-3" value="Log In States" style="swimlane;whiteSpace=wrap;html=1;" vertex="1" parent="1">
          <mxGeometry x="280" y="910" width="270" height="120" as="geometry" />
        </mxCell>
        <mxCell id="hSQZdgQzFAkIAxgpnXTj-9" value="" style="endArrow=classic;html=1;rounded=0;" edge="1" parent="1">
          <mxGeometry width="50" height="50" relative="1" as="geometry">
            <mxPoint x="421" y="1040" as="sourcePoint" />
            <mxPoint x="421.38" y="1150" as="targetPoint" />
          </mxGeometry>
        </mxCell>
        <mxCell id="hSQZdgQzFAkIAxgpnXTj-10" value="Accepted" style="edgeLabel;html=1;align=center;verticalAlign=middle;resizable=0;points=[];" vertex="1" connectable="0" parent="hSQZdgQzFAkIAxgpnXTj-9">
          <mxGeometry x="-0.1067" y="1" relative="1" as="geometry">
            <mxPoint y="-1" as="offset" />
          </mxGeometry>
        </mxCell>
        <mxCell id="hSQZdgQzFAkIAxgpnXTj-11" value="" style="endArrow=none;html=1;rounded=0;entryX=1.051;entryY=0.045;entryDx=0;entryDy=0;entryPerimeter=0;" edge="1" parent="1">
          <mxGeometry width="50" height="50" relative="1" as="geometry">
            <mxPoint x="640.86" y="660" as="sourcePoint" />
            <mxPoint x="490.9999999999999" y="660.3499999999999" as="targetPoint" />
          </mxGeometry>
        </mxCell>
        <mxCell id="hSQZdgQzFAkIAxgpnXTj-12" value="" style="endArrow=none;html=1;rounded=0;" edge="1" parent="1">
          <mxGeometry width="50" height="50" relative="1" as="geometry">
            <mxPoint x="641" y="340" as="sourcePoint" />
            <mxPoint x="641" y="660" as="targetPoint" />
          </mxGeometry>
        </mxCell>
        <mxCell id="hSQZdgQzFAkIAxgpnXTj-13" value="" style="endArrow=classic;html=1;rounded=0;entryX=1;entryY=0.5;entryDx=0;entryDy=0;" edge="1" parent="1">
          <mxGeometry width="50" height="50" relative="1" as="geometry">
            <mxPoint x="641" y="340" as="sourcePoint" />
            <mxPoint x="480" y="340" as="targetPoint" />
          </mxGeometry>
        </mxCell>
        <mxCell id="0ngaBn0p-4Bx7mhDoGlm-1" value="Idle" style="rounded=1;whiteSpace=wrap;html=1;" vertex="1" parent="1">
          <mxGeometry x="350" y="300" width="120" height="60" as="geometry" />
        </mxCell>
        <mxCell id="n7Scl8Cx6lQY7KjbFQLd-1" value="" style="rounded=1;whiteSpace=wrap;html=1;" vertex="1" parent="1">
          <mxGeometry x="230" y="480" width="340" height="300" as="geometry" />
        </mxCell>
        <mxCell id="n7Scl8Cx6lQY7KjbFQLd-2" value="&lt;span style=&quot;font-weight: 700;&quot;&gt;Sign Up States&lt;/span&gt;" style="text;html=1;align=center;verticalAlign=middle;whiteSpace=wrap;rounded=0;" vertex="1" parent="1">
          <mxGeometry x="380" y="510" width="60" height="30" as="geometry" />
        </mxCell>
        <mxCell id="n7Scl8Cx6lQY7KjbFQLd-3" value="Information Collcet" style="rounded=1;whiteSpace=wrap;html=1;" vertex="1" parent="1">
          <mxGeometry x="354" y="555" width="120" height="60" as="geometry" />
        </mxCell>
        <mxCell id="n7Scl8Cx6lQY7KjbFQLd-5" value="" style="endArrow=classic;html=1;rounded=0;entryX=0.5;entryY=0;entryDx=0;entryDy=0;" edge="1" parent="1">
          <mxGeometry width="50" height="50" relative="1" as="geometry">
            <mxPoint x="414.40999999999997" y="620" as="sourcePoint" />
            <mxPoint x="414.40999999999997" y="680" as="targetPoint" />
          </mxGeometry>
        </mxCell>
        <mxCell id="n7Scl8Cx6lQY7KjbFQLd-6" value="CAPCHA" style="rounded=1;whiteSpace=wrap;html=1;" vertex="1" parent="1">
          <mxGeometry x="355" y="700" width="120" height="60" as="geometry" />
        </mxCell>
      </root>
    </mxGraphModel>
  </diagram>
  <diagram id="C6f4jP-xzY8i_2Y2UZNw" name="Browse General Library">
    <mxGraphModel dx="1358" dy="549" grid="1" gridSize="10" guides="1" tooltips="1" connect="1" arrows="1" fold="1" page="1" pageScale="1" pageWidth="827" pageHeight="1169" math="0" shadow="0">
      <root>
        <mxCell id="0" />
        <mxCell id="1" parent="0" />
        <mxCell id="5Q_biztO9gtW-vLltget-1" value="&lt;font style=&quot;font-size: 36px;&quot;&gt;Browse General Library&lt;/font&gt;" style="rounded=0;whiteSpace=wrap;html=1;fillColor=#fff2cc;strokeColor=#d6b656;" vertex="1" parent="1">
          <mxGeometry x="220" y="50" width="466" height="70" as="geometry" />
        </mxCell>
        <mxCell id="m7T-lHX4WBHRe96gIjVI-1" value="" style="ellipse;whiteSpace=wrap;html=1;aspect=fixed;fillColor=#000000;" vertex="1" parent="1">
          <mxGeometry x="423" y="140" width="40" height="40" as="geometry" />
        </mxCell>
        <mxCell id="m7T-lHX4WBHRe96gIjVI-2" value="start" style="text;whiteSpace=wrap;" vertex="1" parent="1">
          <mxGeometry x="489" y="145" width="30" height="30" as="geometry" />
        </mxCell>
        <mxCell id="pPDgNBMW0ltyhVF3kPrm-1" value="" style="endArrow=classic;html=1;rounded=0;" edge="1" parent="1">
          <mxGeometry width="50" height="50" relative="1" as="geometry">
            <mxPoint x="443" y="200" as="sourcePoint" />
            <mxPoint x="443" y="280" as="targetPoint" />
          </mxGeometry>
        </mxCell>
        <mxCell id="fx9asZR6KozwgajOVWnR-7" value="" style="endArrow=classic;html=1;rounded=0;" edge="1" parent="1">
          <mxGeometry width="50" height="50" relative="1" as="geometry">
            <mxPoint x="439.47" y="410" as="sourcePoint" />
            <mxPoint x="439.47" y="470" as="targetPoint" />
          </mxGeometry>
        </mxCell>
        <mxCell id="fx9asZR6KozwgajOVWnR-8" value="" style="endArrow=none;html=1;rounded=0;" edge="1" parent="1">
          <mxGeometry width="50" height="50" relative="1" as="geometry">
            <mxPoint x="200" y="710" as="sourcePoint" />
            <mxPoint x="340" y="710" as="targetPoint" />
          </mxGeometry>
        </mxCell>
        <mxCell id="fx9asZR6KozwgajOVWnR-10" value="" style="endArrow=classic;html=1;rounded=0;" edge="1" parent="1">
          <mxGeometry width="50" height="50" relative="1" as="geometry">
            <mxPoint x="200" y="560" as="sourcePoint" />
            <mxPoint x="340" y="560" as="targetPoint" />
          </mxGeometry>
        </mxCell>
        <mxCell id="fx9asZR6KozwgajOVWnR-11" value="" style="endArrow=none;html=1;rounded=0;" edge="1" parent="1">
          <mxGeometry width="50" height="50" relative="1" as="geometry">
            <mxPoint x="200" y="710" as="sourcePoint" />
            <mxPoint x="200" y="560" as="targetPoint" />
          </mxGeometry>
        </mxCell>
        <mxCell id="fx9asZR6KozwgajOVWnR-12" value="Wants to find more&lt;div&gt;resources&lt;/div&gt;" style="edgeLabel;html=1;align=center;verticalAlign=middle;resizable=0;points=[];" vertex="1" connectable="0" parent="fx9asZR6KozwgajOVWnR-11">
          <mxGeometry x="-0.0029" y="1" relative="1" as="geometry">
            <mxPoint as="offset" />
          </mxGeometry>
        </mxCell>
        <mxCell id="x9JmreuzaQ1YOENN8WaU-1" value="" style="ellipse;html=1;shape=endState;fillColor=#000000;strokeColor=#ff0000;" vertex="1" parent="1">
          <mxGeometry x="406" y="910" width="40" height="40" as="geometry" />
        </mxCell>
        <mxCell id="x9JmreuzaQ1YOENN8WaU-2" value="Process Complete" style="text;html=1;align=center;verticalAlign=middle;whiteSpace=wrap;rounded=0;" vertex="1" parent="1">
          <mxGeometry x="395" y="960" width="60" height="30" as="geometry" />
        </mxCell>
        <mxCell id="x9JmreuzaQ1YOENN8WaU-3" value="" style="endArrow=classic;html=1;rounded=0;" edge="1" parent="1">
          <mxGeometry width="50" height="50" relative="1" as="geometry">
            <mxPoint x="421" y="780" as="sourcePoint" />
            <mxPoint x="421.38" y="890" as="targetPoint" />
          </mxGeometry>
        </mxCell>
        <mxCell id="kzHNm3i4jvhOaMtp3ZjY-1" value="Idle" style="rounded=1;whiteSpace=wrap;html=1;" vertex="1" parent="1">
          <mxGeometry x="378" y="310" width="120" height="60" as="geometry" />
        </mxCell>
        <mxCell id="RsaUPP19xu_F4q5YcgzT-1" value="" style="rounded=1;whiteSpace=wrap;html=1;" vertex="1" parent="1">
          <mxGeometry x="340" y="490" width="196" height="250" as="geometry" />
        </mxCell>
        <mxCell id="RsaUPP19xu_F4q5YcgzT-2" value="Browse Resources" style="rounded=1;whiteSpace=wrap;html=1;" vertex="1" parent="1">
          <mxGeometry x="378" y="554" width="120" height="60" as="geometry" />
        </mxCell>
        <mxCell id="RsaUPP19xu_F4q5YcgzT-3" value="View Resources" style="rounded=1;whiteSpace=wrap;html=1;" vertex="1" parent="1">
          <mxGeometry x="380" y="660" width="120" height="60" as="geometry" />
        </mxCell>
        <mxCell id="RsaUPP19xu_F4q5YcgzT-4" value="" style="endArrow=classic;html=1;rounded=0;entryX=0.5;entryY=0;entryDx=0;entryDy=0;" edge="1" parent="1">
          <mxGeometry width="50" height="50" relative="1" as="geometry">
            <mxPoint x="437" y="610" as="sourcePoint" />
            <mxPoint x="437.46999999999997" y="660" as="targetPoint" />
          </mxGeometry>
        </mxCell>
        <mxCell id="RsaUPP19xu_F4q5YcgzT-5" value="&lt;span style=&quot;font-weight: 700;&quot;&gt;Browse General Library States&lt;/span&gt;" style="text;html=1;align=center;verticalAlign=middle;whiteSpace=wrap;rounded=0;" vertex="1" parent="1">
          <mxGeometry x="391" y="510" width="104" height="30" as="geometry" />
        </mxCell>
      </root>
    </mxGraphModel>
  </diagram>
  <diagram id="lob2hD0uQbjDnjT7RCHf" name="Group Joining">
    <mxGraphModel dx="1518" dy="614" grid="1" gridSize="10" guides="1" tooltips="1" connect="1" arrows="1" fold="1" page="1" pageScale="1" pageWidth="827" pageHeight="1169" math="0" shadow="0">
      <root>
        <mxCell id="0" />
        <mxCell id="1" parent="0" />
        <mxCell id="sJPSQBlgc0-5AcVFBKab-1" value="&lt;font style=&quot;font-size: 36px;&quot;&gt;Group Joining&lt;/font&gt;" style="rounded=0;whiteSpace=wrap;html=1;fillColor=#fff2cc;strokeColor=#d6b656;" vertex="1" parent="1">
          <mxGeometry x="192" y="40" width="466" height="70" as="geometry" />
        </mxCell>
        <mxCell id="6XPPjWpRJbn3tPvvPbNB-1" value="" style="ellipse;whiteSpace=wrap;html=1;aspect=fixed;fillColor=#000000;" vertex="1" parent="1">
          <mxGeometry x="395" y="130" width="40" height="40" as="geometry" />
        </mxCell>
        <mxCell id="6XPPjWpRJbn3tPvvPbNB-2" value="start" style="text;whiteSpace=wrap;" vertex="1" parent="1">
          <mxGeometry x="461" y="135" width="30" height="30" as="geometry" />
        </mxCell>
        <mxCell id="6XPPjWpRJbn3tPvvPbNB-3" value="" style="endArrow=classic;html=1;rounded=0;" edge="1" parent="1">
          <mxGeometry width="50" height="50" relative="1" as="geometry">
            <mxPoint x="415" y="190" as="sourcePoint" />
            <mxPoint x="415" y="270" as="targetPoint" />
          </mxGeometry>
        </mxCell>
        <mxCell id="oJxMNY99pumMogWqH2-y-1" value="" style="endArrow=classic;html=1;rounded=0;" edge="1" parent="1">
          <mxGeometry width="50" height="50" relative="1" as="geometry">
            <mxPoint x="413" y="400" as="sourcePoint" />
            <mxPoint x="413" y="460" as="targetPoint" />
          </mxGeometry>
        </mxCell>
        <mxCell id="XTMutvjt9X4U15ijRT9D-12" value="" style="endArrow=none;html=1;rounded=0;exitX=-0.016;exitY=0.227;exitDx=0;exitDy=0;exitPerimeter=0;" edge="1" parent="1">
          <mxGeometry width="50" height="50" relative="1" as="geometry">
            <mxPoint x="227.76000000000022" y="720.0000000000002" as="sourcePoint" />
            <mxPoint x="120" y="720.19" as="targetPoint" />
          </mxGeometry>
        </mxCell>
        <mxCell id="XTMutvjt9X4U15ijRT9D-13" value="" style="endArrow=none;html=1;rounded=0;" edge="1" parent="1">
          <mxGeometry width="50" height="50" relative="1" as="geometry">
            <mxPoint x="120" y="720" as="sourcePoint" />
            <mxPoint x="120" y="360" as="targetPoint" />
          </mxGeometry>
        </mxCell>
        <mxCell id="XTMutvjt9X4U15ijRT9D-15" value="No" style="edgeLabel;html=1;align=center;verticalAlign=middle;resizable=0;points=[];" vertex="1" connectable="0" parent="XTMutvjt9X4U15ijRT9D-13">
          <mxGeometry x="-0.0134" y="1" relative="1" as="geometry">
            <mxPoint y="-1" as="offset" />
          </mxGeometry>
        </mxCell>
        <mxCell id="XTMutvjt9X4U15ijRT9D-14" value="" style="endArrow=classic;html=1;rounded=0;entryX=0;entryY=0.75;entryDx=0;entryDy=0;" edge="1" parent="1">
          <mxGeometry width="50" height="50" relative="1" as="geometry">
            <mxPoint x="120" y="360" as="sourcePoint" />
            <mxPoint x="350" y="355" as="targetPoint" />
          </mxGeometry>
        </mxCell>
        <mxCell id="XTMutvjt9X4U15ijRT9D-16" value="" style="endArrow=classic;html=1;rounded=0;exitX=0.542;exitY=1.169;exitDx=0;exitDy=0;exitPerimeter=0;" edge="1" parent="1">
          <mxGeometry width="50" height="50" relative="1" as="geometry">
            <mxPoint x="305.8800000000001" y="825.0700000000002" as="sourcePoint" />
            <mxPoint x="370" y="950" as="targetPoint" />
          </mxGeometry>
        </mxCell>
        <mxCell id="XTMutvjt9X4U15ijRT9D-17" value="yes" style="edgeLabel;html=1;align=center;verticalAlign=middle;resizable=0;points=[];" vertex="1" connectable="0" parent="XTMutvjt9X4U15ijRT9D-16">
          <mxGeometry x="-0.4267" y="-1" relative="1" as="geometry">
            <mxPoint as="offset" />
          </mxGeometry>
        </mxCell>
        <mxCell id="xJF6aajqYY9S2mrhqmGL-1" value="" style="ellipse;html=1;shape=endState;fillColor=#000000;strokeColor=#ff0000;" vertex="1" parent="1">
          <mxGeometry x="386" y="950" width="40" height="40" as="geometry" />
        </mxCell>
        <mxCell id="xJF6aajqYY9S2mrhqmGL-2" value="Process Complete" style="text;html=1;align=center;verticalAlign=middle;whiteSpace=wrap;rounded=0;" vertex="1" parent="1">
          <mxGeometry x="375" y="1000" width="60" height="30" as="geometry" />
        </mxCell>
        <mxCell id="xJF6aajqYY9S2mrhqmGL-3" value="" style="endArrow=classic;html=1;rounded=0;" edge="1" parent="1">
          <mxGeometry width="50" height="50" relative="1" as="geometry">
            <mxPoint x="550" y="730" as="sourcePoint" />
            <mxPoint x="440" y="950" as="targetPoint" />
          </mxGeometry>
        </mxCell>
        <mxCell id="Ktc62NlE145-ofrjZXI9-1" value="Idle" style="rounded=1;whiteSpace=wrap;html=1;" vertex="1" parent="1">
          <mxGeometry x="352.5" y="300" width="135" height="80" as="geometry" />
        </mxCell>
        <mxCell id="gxJD8tPS2CaM5tflad_J-1" value="" style="rounded=1;whiteSpace=wrap;html=1;" vertex="1" parent="1">
          <mxGeometry x="225" y="470" width="390" height="350" as="geometry" />
        </mxCell>
        <mxCell id="gxJD8tPS2CaM5tflad_J-2" value="&lt;span style=&quot;font-weight: 700;&quot;&gt;Joining Group States&lt;/span&gt;" style="text;html=1;align=center;verticalAlign=middle;whiteSpace=wrap;rounded=0;" vertex="1" parent="1">
          <mxGeometry x="347" y="480" width="146" height="30" as="geometry" />
        </mxCell>
        <mxCell id="gxJD8tPS2CaM5tflad_J-3" value="Browse Group" style="rounded=1;whiteSpace=wrap;html=1;" vertex="1" parent="1">
          <mxGeometry x="356.25" y="510" width="127.5" height="70" as="geometry" />
        </mxCell>
        <mxCell id="gxJD8tPS2CaM5tflad_J-4" value="" style="endArrow=classic;html=1;rounded=0;exitX=0.5;exitY=1;exitDx=0;exitDy=0;" edge="1" parent="1">
          <mxGeometry width="50" height="50" relative="1" as="geometry">
            <mxPoint x="426" y="585" as="sourcePoint" />
            <mxPoint x="503" y="625" as="targetPoint" />
          </mxGeometry>
        </mxCell>
        <mxCell id="gxJD8tPS2CaM5tflad_J-5" value="" style="endArrow=classic;html=1;rounded=0;exitX=0.5;exitY=1;exitDx=0;exitDy=0;" edge="1" parent="1">
          <mxGeometry width="50" height="50" relative="1" as="geometry">
            <mxPoint x="426" y="585" as="sourcePoint" />
            <mxPoint x="360" y="625" as="targetPoint" />
          </mxGeometry>
        </mxCell>
        <mxCell id="gxJD8tPS2CaM5tflad_J-6" value="Join Private Group" style="rounded=1;whiteSpace=wrap;html=1;" vertex="1" parent="1">
          <mxGeometry x="266" y="630" width="120" height="60" as="geometry" />
        </mxCell>
        <mxCell id="gxJD8tPS2CaM5tflad_J-7" value="Join Group" style="rounded=1;whiteSpace=wrap;html=1;" vertex="1" parent="1">
          <mxGeometry x="470" y="630" width="120" height="60" as="geometry" />
        </mxCell>
        <mxCell id="gxJD8tPS2CaM5tflad_J-8" value="Request Pending" style="rounded=1;whiteSpace=wrap;html=1;" vertex="1" parent="1">
          <mxGeometry x="266" y="740" width="120" height="60" as="geometry" />
        </mxCell>
        <mxCell id="gxJD8tPS2CaM5tflad_J-9" value="" style="endArrow=classic;html=1;rounded=0;exitX=0.5;exitY=1;exitDx=0;exitDy=0;entryX=0.5;entryY=0;entryDx=0;entryDy=0;" edge="1" parent="1" source="gxJD8tPS2CaM5tflad_J-6" target="gxJD8tPS2CaM5tflad_J-8">
          <mxGeometry width="50" height="50" relative="1" as="geometry">
            <mxPoint x="400" y="730" as="sourcePoint" />
            <mxPoint x="450" y="680" as="targetPoint" />
          </mxGeometry>
        </mxCell>
      </root>
    </mxGraphModel>
  </diagram>
  <diagram id="CC2gipJqILHgJSkchOMQ" name="Upload Resources">
    <mxGraphModel grid="1" page="1" gridSize="10" guides="1" tooltips="1" connect="1" arrows="1" fold="1" pageScale="1" pageWidth="827" pageHeight="1169" math="0" shadow="0">
      <root>
        <mxCell id="0" />
        <mxCell id="1" parent="0" />
        <mxCell id="WKEKMBDhv1DAHKOVBcb--1" value="" style="ellipse;whiteSpace=wrap;html=1;aspect=fixed;fillColor=#000000;" vertex="1" parent="1">
          <mxGeometry x="395" y="130" width="40" height="40" as="geometry" />
        </mxCell>
        <mxCell id="WKEKMBDhv1DAHKOVBcb--2" value="start" style="text;whiteSpace=wrap;" vertex="1" parent="1">
          <mxGeometry x="461" y="135" width="30" height="30" as="geometry" />
        </mxCell>
        <mxCell id="WKEKMBDhv1DAHKOVBcb--3" value="" style="endArrow=classic;html=1;rounded=0;" edge="1" parent="1">
          <mxGeometry width="50" height="50" relative="1" as="geometry">
            <mxPoint x="415" y="190" as="sourcePoint" />
            <mxPoint x="415" y="270" as="targetPoint" />
          </mxGeometry>
        </mxCell>
        <mxCell id="WKEKMBDhv1DAHKOVBcb--5" value="" style="endArrow=classic;html=1;rounded=0;" edge="1" parent="1">
          <mxGeometry width="50" height="50" relative="1" as="geometry">
            <mxPoint x="413" y="400" as="sourcePoint" />
            <mxPoint x="413" y="460" as="targetPoint" />
          </mxGeometry>
        </mxCell>
        <mxCell id="3b0O2fbh-u84VxzfCRb8-1" value="&lt;font style=&quot;font-size: 36px;&quot;&gt;Upload Resources&lt;/font&gt;" style="rounded=0;whiteSpace=wrap;html=1;fillColor=#fff2cc;strokeColor=#d6b656;" vertex="1" parent="1">
          <mxGeometry x="192" y="40" width="466" height="70" as="geometry" />
        </mxCell>
        <mxCell id="oMYngoCEjDXkQiI94HyF-1" value="" style="ellipse;html=1;shape=endState;fillColor=#000000;strokeColor=#ff0000;" vertex="1" parent="1">
          <mxGeometry x="406" y="910" width="40" height="40" as="geometry" />
        </mxCell>
        <mxCell id="oMYngoCEjDXkQiI94HyF-2" value="Process Complete" style="text;html=1;align=center;verticalAlign=middle;whiteSpace=wrap;rounded=0;" vertex="1" parent="1">
          <mxGeometry x="395" y="960" width="60" height="30" as="geometry" />
        </mxCell>
        <mxCell id="oMYngoCEjDXkQiI94HyF-3" value="" style="endArrow=none;html=1;rounded=0;entryX=1.021;entryY=-0.067;entryDx=0;entryDy=0;entryPerimeter=0;" edge="1" parent="1">
          <mxGeometry width="50" height="50" relative="1" as="geometry">
            <mxPoint x="590" y="738" as="sourcePoint" />
            <mxPoint x="492.94000000000005" y="737.99" as="targetPoint" />
          </mxGeometry>
        </mxCell>
        <mxCell id="oMYngoCEjDXkQiI94HyF-6" value="Rejected" style="edgeLabel;html=1;align=center;verticalAlign=middle;resizable=0;points=[];" vertex="1" connectable="0" parent="oMYngoCEjDXkQiI94HyF-3">
          <mxGeometry x="-0.3612" relative="1" as="geometry">
            <mxPoint as="offset" />
          </mxGeometry>
        </mxCell>
        <mxCell id="oMYngoCEjDXkQiI94HyF-4" value="" style="endArrow=none;html=1;rounded=0;" edge="1" parent="1">
          <mxGeometry width="50" height="50" relative="1" as="geometry">
            <mxPoint x="590" y="320" as="sourcePoint" />
            <mxPoint x="590" y="740" as="targetPoint" />
          </mxGeometry>
        </mxCell>
        <mxCell id="oMYngoCEjDXkQiI94HyF-5" value="" style="endArrow=classic;html=1;rounded=0;" edge="1" parent="1">
          <mxGeometry width="50" height="50" relative="1" as="geometry">
            <mxPoint x="590" y="320" as="sourcePoint" />
            <mxPoint x="490" y="320" as="targetPoint" />
          </mxGeometry>
        </mxCell>
        <mxCell id="OZsYQdWcHSzR-StMKOaC-1" value="Idle" style="rounded=1;whiteSpace=wrap;html=1;" vertex="1" parent="1">
          <mxGeometry x="350" y="300" width="120" height="60" as="geometry" />
        </mxCell>
        <mxCell id="p1qL6cGyw0dzfbFp6mLn-1" value="" style="rounded=1;whiteSpace=wrap;html=1;" vertex="1" parent="1">
          <mxGeometry x="310" y="480" width="200" height="360" as="geometry" />
        </mxCell>
        <mxCell id="p1qL6cGyw0dzfbFp6mLn-2" value="Choose File to Upload" style="rounded=1;whiteSpace=wrap;html=1;" vertex="1" parent="1">
          <mxGeometry x="355" y="550" width="120" height="60" as="geometry" />
        </mxCell>
        <mxCell id="p1qL6cGyw0dzfbFp6mLn-3" value="" style="endArrow=classic;html=1;rounded=0;exitX=0.5;exitY=1;exitDx=0;exitDy=0;" edge="1" parent="1">
          <mxGeometry width="50" height="50" relative="1" as="geometry">
            <mxPoint x="414.23" y="615" as="sourcePoint" />
            <mxPoint x="414.23" y="715" as="targetPoint" />
          </mxGeometry>
        </mxCell>
        <mxCell id="p1qL6cGyw0dzfbFp6mLn-4" value="Admin Verification" style="rounded=1;whiteSpace=wrap;html=1;" vertex="1" parent="1">
          <mxGeometry x="355" y="730" width="120" height="60" as="geometry" />
        </mxCell>
        <mxCell id="p1qL6cGyw0dzfbFp6mLn-5" value="" style="endArrow=classic;html=1;rounded=0;exitX=0.5;exitY=1;exitDx=0;exitDy=0;" edge="1" parent="1">
          <mxGeometry width="50" height="50" relative="1" as="geometry">
            <mxPoint x="424.23" y="800" as="sourcePoint" />
            <mxPoint x="424.23" y="900" as="targetPoint" />
          </mxGeometry>
        </mxCell>
        <mxCell id="p1qL6cGyw0dzfbFp6mLn-6" value="Accepted" style="edgeLabel;html=1;align=center;verticalAlign=middle;resizable=0;points=[];" vertex="1" connectable="0" parent="p1qL6cGyw0dzfbFp6mLn-5">
          <mxGeometry x="-0.415" y="-3" relative="1" as="geometry">
            <mxPoint as="offset" />
          </mxGeometry>
        </mxCell>
        <mxCell id="p1qL6cGyw0dzfbFp6mLn-7" value="&lt;span style=&quot;font-weight: 700;&quot;&gt;Upload Resources States&lt;/span&gt;" style="text;html=1;align=center;verticalAlign=middle;whiteSpace=wrap;rounded=0;" vertex="1" parent="1">
          <mxGeometry x="328" y="500" width="170" height="30" as="geometry" />
        </mxCell>
      </root>
    </mxGraphModel>
  </diagram>
</mxfile>
